<?xml version="1.0" encoding="utf-8"?>
<!-- Generator: Adobe Illustrator 19.0.0, SVG Export Plug-In . SVG Version: 6.00 Build 0)  -->
<svg version="1.1" id="Layer_1" xmlns="http://www.w3.org/2000/svg" xmlns:xlink="http://www.w3.org/1999/xlink" x="0px" y="0px"
	 viewBox="-49 141 512 512" style="enable-background:new -49 141 512 512;" xml:space="preserve">
<style type="text/css">
	.st0{fill:#AF28B2;}
	.st1{fill:#901B93;}
	.st2{fill:#FFFFFF;}
	.st3{fill:#D1D1D1;}
</style>
<circle class="st0" cx="207" cy="397" r="256"/>
<path class="st1" d="M325.7,273.9c-30.6,3.9-62.5,3.7-94.6,0.7c-44.8-3.4-110.3-24.1-134.5,17.2c-38.8,66.2-19.6,151-10.6,226.1
	l134.7,134.7c130.4-6.9,234.9-111.4,241.8-241.8L325.7,273.9z"/>
<g>
	<path class="st2" d="M266.2,250.5H147.8c-48.1,0-87.3,39.2-87.3,87.3v118.5c0,48.1,39.2,87.3,87.3,87.3h118.5
		c48.1,0,87.3-39.2,87.3-87.3V337.8C353.5,289.6,314.4,250.5,266.2,250.5L266.2,250.5z M324,456.2c0,31.9-25.9,57.8-57.8,57.8H147.8
		c-31.9,0-57.8-25.9-57.8-57.8V337.8c0-31.9,25.9-57.8,57.8-57.8h118.5c31.9,0,57.8,25.9,57.8,57.8L324,456.2L324,456.2z"/>
	<path class="st2" d="M207,321.2c-41.8,0-75.8,34-75.8,75.8c0,41.8,34,75.8,75.8,75.8s75.8-34,75.8-75.8S248.8,321.2,207,321.2
		L207,321.2z M207,443.3c-25.6,0-46.3-20.7-46.3-46.3c0-25.6,20.7-46.3,46.3-46.3s46.3,20.7,46.3,46.3
		C253.3,422.6,232.6,443.3,207,443.3L207,443.3z"/>
</g>
<g>
	<path class="st3" d="M301.1,321.8c0,10-8.1,18.2-18.2,18.2c-10,0-18.2-8.1-18.2-18.2c0-10,8.1-18.2,18.2-18.2
		C293,303.6,301.1,311.7,301.1,321.8L301.1,321.8z"/>
	<path class="st3" d="M266.2,250.5h-59.8V280h59.8c31.9,0,57.8,25.9,57.8,57.8v118.5c0,31.9-25.9,57.8-57.8,57.8h-59.8v29.5h59.8
		c48.1,0,87.3-39.2,87.3-87.3V337.8C353.5,289.6,314.4,250.5,266.2,250.5z"/>
	<path class="st3" d="M207,321.2c-0.2,0-0.4,0-0.6,0v29.5c0.2,0,0.4,0,0.6,0c25.6,0,46.3,20.7,46.3,46.3c0,25.6-20.7,46.3-46.3,46.3
		c-0.2,0-0.4,0-0.6,0v29.5c0.2,0,0.4,0,0.6,0c41.8,0,75.8-34,75.8-75.8C282.8,355.2,248.8,321.2,207,321.2z"/>
</g>
</svg>
