<?xml version="1.0" encoding="utf-8"?>
<!-- Generator: Adobe Illustrator 19.0.0, SVG Export Plug-In . SVG Version: 6.00 Build 0)  -->
<svg version="1.1" id="Layer_1" xmlns="http://www.w3.org/2000/svg" xmlns:xlink="http://www.w3.org/1999/xlink" x="0px" y="0px"
	 viewBox="-49 141 512 512" style="enable-background:new -49 141 512 512;" xml:space="preserve">
<style type="text/css">
	.st0{opacity:0.5;fill:#4E598F;}
	.st1{opacity:0.5;fill:#364270;}
	.st2{opacity:0.5;}
	.st3{fill:#FFFFFF;}
	.st4{opacity:0.5;fill:#D1D1D1;}
</style>
<circle class="st0" cx="207" cy="397" r="256"/>
<path class="st1" d="M462.6,382.7L342,262.1c-2,0.6-7-1.7-9.2-1.3c-51.7,8.6-101.7,0-151.7,13.8c-24.1,6.9-25.9,36.2-34.5,55.2
	c-12.1,34.5-10.3,72.4-25.9,105.2c-10.3,22.4-34.5,36.2-43.1,62.1c-2.9,10.8-2.7,24.4-6,34.7l121,120.9c4.7,0.3,9.5,0.4,14.3,0.4
	c141.4,0,256-114.6,256-256C463,392.2,462.9,387.4,462.6,382.7z"/>
<g class="st2">
	<path class="st3" d="M314,250.5H100c-21.8,0-39.5,17.7-39.5,39.5V504c0,21.8,17.7,39.5,39.5,39.5h105.6l0.2-104.7h-27.2
		c-3.5,0-6.4-2.9-6.4-6.4l-0.1-33.8c0-3.6,2.9-6.4,6.4-6.4h27.2v-32.6c0-37.9,23.1-58.5,56.9-58.5h27.7c3.5,0,6.4,2.9,6.4,6.4V336
		c0,3.5-2.9,6.4-6.4,6.4l-17,0c-18.4,0-21.9,8.7-21.9,21.5v28.2h40.4c3.8,0,6.8,3.4,6.4,7.2l-4,33.8c-0.4,3.2-3.1,5.7-6.4,5.7h-36.2
		l-0.2,104.7H314c21.8,0,39.5-17.7,39.5-39.5V290C353.5,268.1,335.9,250.5,314,250.5L314,250.5z"/>
	<polygon class="st3" points="205.5,543.5 205.7,438.8 205.3,438.8 205.3,543.5 	"/>
</g>
<path class="st4" d="M314,250.5H205.3v141.7h0.3v-32.6c0-37.9,23.1-58.5,56.9-58.5h27.7c3.5,0,6.4,2.9,6.4,6.4V336
	c0,3.5-2.9,6.4-6.4,6.4l-17,0c-18.4,0-21.9,8.7-21.9,21.5v28.2h40.4c3.8,0,6.8,3.4,6.4,7.2l-4,33.8c-0.4,3.2-3.1,5.7-6.4,5.7h-36.2
	l-0.2,104.7H314c21.8,0,39.5-17.7,39.5-39.5V290C353.5,268.1,335.9,250.5,314,250.5z"/>
</svg>
