<?xml version="1.0" encoding="utf-8"?>
<!-- Generator: Adobe Illustrator 19.0.0, SVG Export Plug-In . SVG Version: 6.00 Build 0)  -->
<svg version="1.1" id="Layer_1" xmlns="http://www.w3.org/2000/svg" xmlns:xlink="http://www.w3.org/1999/xlink" x="0px" y="0px"
	 viewBox="-49 141 512 512" style="enable-background:new -49 141 512 512;" xml:space="preserve">
<style type="text/css">
	.st0{opacity:0.5;fill:#D22215;}
	.st1{opacity:0.5;fill:#A81411;}
	.st2{opacity:0.5;fill:#FFFFFF;}
	.st3{opacity:0.5;fill:#D1D1D1;}
</style>
<circle class="st0" cx="207" cy="397" r="256"/>
<path class="st1" d="M335.9,311.3c-7.7,2.3-15.7,4.4-23.7,6.4c-56.9,12.1-132.7-20.7-165.5,32.8c-27.3,42.5-35.9,95.7-67,133.7
	l166,166c110.5-16.7,197.8-104,214.5-214.5L335.9,311.3z"/>
<path class="st2" d="M292.6,293.3H121.4c-33.6,0-60.9,27.2-60.9,60.9v85.6c0,33.6,27.2,60.9,60.9,60.9h171.3
	c33.6,0,60.9-27.2,60.9-60.9v-85.6C353.5,320.6,326.3,293.3,292.6,293.3L292.6,293.3z M251.5,401.2l-80.1,38.2
	c-2.1,1-4.6-0.5-4.6-2.9v-78.8c0-2.4,2.5-4,4.7-2.9l80.1,40.6C253.9,396.6,253.9,400,251.5,401.2L251.5,401.2z"/>
<path class="st3" d="M292.6,293.3h-87.4v78.6l46.3,23.5c2.4,1.2,2.3,4.6-0.1,5.8l-46.2,22v77.5h87.4c33.6,0,60.9-27.2,60.9-60.9
	v-85.6C353.5,320.6,326.3,293.3,292.6,293.3z"/>
</svg>
