<?xml version="1.0" encoding="utf-8"?>
<!-- Generator: Adobe Illustrator 19.0.0, SVG Export Plug-In . SVG Version: 6.00 Build 0)  -->
<svg version="1.1" id="Layer_1" xmlns="http://www.w3.org/2000/svg" xmlns:xlink="http://www.w3.org/1999/xlink" x="0px" y="0px"
	 viewBox="-49 141 512 512" style="enable-background:new -49 141 512 512;" xml:space="preserve">
<style type="text/css">
	.st0{opacity:0.5;fill:#EDEDED;}
	.st1{opacity:0.5;fill:#55CD6C;}
	.st2{opacity:0.5;fill:#FEFEFE;}
</style>
<path class="st0" d="M-49,653l35.3-128c-23-39.7-35.3-83.9-35.3-129.8C-49,255.8,65.8,141,206.1,141S463,255.8,463,395.2
	S346.5,653,206.1,653c-44.1,0-86.5-14.1-124.5-35.3L-49,653z"/>
<path class="st1" d="M88.7,571.8l7.9,4.4c32.7,20.3,70.6,32.7,110.3,32.7c115.6,0,211.9-96.2,211.9-213.6s-96.2-210.1-212.7-210.1
	s-211,93.6-211,210.1c0,40.6,11.5,80.3,32.7,113.9l5.3,7.9l-20.3,74.2L88.7,571.8z"/>
<path class="st2" d="M138.1,276.9l-16.8-0.9c-5.3,0-10.6,1.8-14.1,5.3c-7.9,7.1-21.2,20.3-24.7,38c-6.2,26.5,3.5,58.3,26.5,90
	s67.1,83,144.8,105c24.7,7.1,44.1,2.6,60-7.1c12.4-7.9,20.3-20.3,23-33.5l2.6-12.4c0.9-3.5-0.9-7.9-4.4-9.7l-55.6-25.6
	c-3.5-1.8-7.9-0.9-10.6,2.6L246.7,457c-1.8,1.8-4.4,2.6-7.1,1.8c-15-5.3-65.3-26.5-92.7-79.4c-0.9-2.6-0.9-5.3,0.9-7.1l21.2-23.8
	c1.8-2.6,2.6-6.2,1.8-8.8l-25.6-57.4C144.3,279.6,141.7,276.9,138.1,276.9"/>
</svg>
