<?xml version="1.0" encoding="utf-8"?>
<!-- Generator: Adobe Illustrator 19.0.0, SVG Export Plug-In . SVG Version: 6.00 Build 0)  -->
<svg version="1.1" id="Layer_1" xmlns="http://www.w3.org/2000/svg" xmlns:xlink="http://www.w3.org/1999/xlink" x="0px" y="0px"
	 viewBox="-49 141 512 512" style="enable-background:new -49 141 512 512;" xml:space="preserve">
<style type="text/css">
	.st0{opacity:0.5;fill:#6DC02D;}
	.st1{opacity:0.5;fill:#559B18;}
	.st2{opacity:0.5;fill:#FFFFFF;}
	.st3{opacity:0.5;fill:#D1D1D1;}
	.st4{opacity:0.5;}
	.st5{fill:#6FC32E;}
</style>
<circle class="st0" cx="207" cy="397" r="256"/>
<path class="st1" d="M320.3,301.1L96.7,451.6l188.9,189c89.6-28.9,157.7-105.9,173.7-200.5L320.3,301.1z"/>
<path class="st2" d="M352.3,389.7c0.7-3.5,1-6.5,1.2-8.9c0.3-3.9,0-9.6-0.1-11.4c-3.6-61.8-67.7-111.1-146.3-111.1
	c-80.9,0-146.5,52.2-146.5,116.5c0,59.1,55.4,108,127.2,115.5c4.4,0.5,7.6,4.4,7.1,8.8l-3.1,27.5c-0.7,6.2,5.8,10.8,11.4,8.1
	c60.6-29.3,96.9-59.4,118.6-85.5c3.9-4.7,16.8-22.8,19.4-27.5C346.6,411.8,350.5,401,352.3,389.7z"/>
<path class="st3" d="M353.3,369.5c-3.6-61.8-67.7-111.1-146.3-111.1c-0.2,0-0.4,0-0.5,0v274.8c58.6-28.8,94-58.2,115.2-83.8
	c3.9-4.7,16.8-22.8,19.4-27.5c5.6-10,9.4-20.8,11.2-32.1c0.7-3.5,1-6.5,1.2-8.9C353.7,377,353.4,371.3,353.3,369.5z"/>
<g class="st4">
	<path class="st5" d="M126.4,398.5v-49.1c0-4.1-3.4-7.5-7.5-7.5l0,0c-4.1,0-7.5,3.4-7.5,7.5V406c0,4.1,3.4,7.5,7.5,7.5h30
		c4.1,0,7.5-3.4,7.5-7.5l0,0c0-4.1-3.4-7.5-7.5-7.5L126.4,398.5L126.4,398.5z"/>
	<path class="st5" d="M172.6,413.5h-3.3c-3.2,0-5.9-2.6-5.9-5.9v-59.8c0-3.2,2.6-5.9,5.9-5.9h3.3c3.2,0,5.9,2.6,5.9,5.9v59.8
		C178.5,410.9,175.9,413.5,172.6,413.5z"/>
	<path class="st5" d="M233.2,349.4V384c0,0-29.9-39-30.4-39.5c-1.4-1.6-3.5-2.6-5.9-2.5c-4.1,0.2-7.2,3.7-7.2,7.8V406
		c0,4.1,3.4,7.5,7.5,7.5l0,0c4.1,0,7.5-3.4,7.5-7.5v-34.4c0,0,30.4,39.4,30.8,39.8c1.3,1.3,3.1,2,5.1,2c4.2,0,7.6-3.6,7.6-7.8v-56.3
		c0-4.1-3.4-7.5-7.5-7.5l0,0C236.5,341.9,233.2,345.3,233.2,349.4z"/>
	<path class="st5" d="M304.4,349.4L304.4,349.4c0-4.1-3.4-7.5-7.5-7.5h-30c-4.1,0-7.5,3.4-7.5,7.5V406c0,4.1,3.4,7.5,7.5,7.5h30
		c4.1,0,7.5-3.4,7.5-7.5l0,0c0-4.1-3.4-7.5-7.5-7.5h-22.5v-13.3h22.5c4.1,0,7.5-3.4,7.5-7.5l0,0c0-4.1-3.4-7.5-7.5-7.5h-22.5v-13.3
		h22.5C301,356.9,304.4,353.6,304.4,349.4z"/>
</g>
</svg>
